# xmcd
#
# Track frame offsets: 
#        182
#        13960
#        30080
#        46932
#        61087
#        71655
#        83585
#        95287
#        106845
#        120355
#        132287
#        144120
#        157457
#        170190
#        184695
#        201222
#        213215
#        224635
#        235412
#        249495
#
# Disc length: 3483 seconds
#
# Revision: 1
# Processed by: cddbd v1.4b42PL0 Copyright (c) Steve Scherf et al.
# Submitted via: ExactAudioCopy v0.90a11
#
DISCID=160d9914
DTITLE=Johnny Cash - It Ain't Me Babe
DYEAR=1900
DGENRE=
TTITLE0=it ain't me babe
TTITLE1=johnny 99
TTITLE2=the city of the new orleans
TTITLE3=the ballad of forty dollars
TTITLE4=bonanza
TTITLE5=ring of fire
TTITLE6=if i had a hammer
TTITLE7=a thing called love
TTITLE8=if i where a carpender
TTITLE9=flesh and blood
TTITLE10=folsom prison blues
TTITLE11=singing in viet nam talking blues
TTITLE12=my old kentucky home
TTITLE13=the battle of new orleans
TTITLE14=a boy named sue
TTITLE15=big foot
TTITLE16=san quentin
TTITLE17=daddy sang bass
TTITLE18=orange blossom special
TTITLE19=what is truth
EXTD=
EXTT0=It ain't me babe
EXTT1=
EXTT2=
EXTT3=
EXTT4=
EXTT5=
EXTT6=
EXTT7=
EXTT8=
EXTT9=
EXTT10=
EXTT11=
EXTT12=
EXTT13=
EXTT14=
EXTT15=
EXTT16=
EXTT17=
EXTT18=
EXTT19=
PLAYORDER=
